<?xml version="1.0" encoding="UTF-8"?>
<svg version="1.1" xmlns="http://www.w3.org/2000/svg" width="104" height="98">
<path d="M0 0 C34.32 0 68.64 0 104 0 C104 32.34 104 64.68 104 98 C69.68 98 35.36 98 0 98 C0 65.66 0 33.32 0 0 Z " fill="#F3F0E5" transform="translate(0,0)"/>
<path d="M0 0 C34.32 0 68.64 0 104 0 C104 32.34 104 64.68 104 98 C69.68 98 35.36 98 0 98 C0 65.66 0 33.32 0 0 Z M14.88671875 21.59765625 C6.44949666 32.34070301 2.90399288 43.47116215 4 57 C6.16732611 69.56371853 12.49542984 80.06424794 22.50390625 87.98046875 C34.06610986 95.87373439 46.28530892 98.63490242 60.09765625 96.52734375 C68.64404052 94.68573578 75.77360238 90.81759841 83 86 C83 85.34 83 84.68 83 84 C83.598125 83.75507812 84.19625 83.51015625 84.8125 83.2578125 C90.57954431 79.94176202 94.68706285 71.13224876 97 65 C99.80091965 51.92285859 98.71349275 39.00782725 91.9375 27.4375 C85.13407291 17.38149504 76.4856819 10.9557084 65 7 C46.03439781 3.45888527 28.48314828 7.22901572 14.88671875 21.59765625 Z " fill="#F5F2E7" transform="translate(0,0)"/>
<path d="M0 0 C3.83425997 -0.07710578 5.85473967 0.24821186 9.07421875 2.39453125 C11.51139133 2.12418491 11.51139133 2.12418491 14.07421875 1.39453125 C15.46640625 1.11609375 15.46640625 1.11609375 16.88671875 0.83203125 C17.60859375 0.68765625 18.33046875 0.54328125 19.07421875 0.39453125 C18.76171875 2.76953125 18.76171875 2.76953125 18.07421875 5.39453125 C15.07682934 7.39279086 14.44074367 7.67003523 11.07421875 7.64453125 C10.39359375 7.6496875 9.71296875 7.65484375 9.01171875 7.66015625 C7.07421875 7.39453125 7.07421875 7.39453125 4.07421875 5.39453125 C2.75421875 5.39453125 1.43421875 5.39453125 0.07421875 5.39453125 C-0.01464309 8.59355764 0.16363344 11.32130581 1.07421875 14.39453125 C-3.19404998 14.39453125 -3.86460557 14.01839612 -6.92578125 11.39453125 C-6.59578125 14.36453125 -6.26578125 17.33453125 -5.92578125 20.39453125 C-1.96578125 19.89953125 -1.96578125 19.89953125 2.07421875 19.39453125 C2.15671875 18.30140625 2.23921875 17.20828125 2.32421875 16.08203125 C3.07421875 12.39453125 3.07421875 12.39453125 4.69921875 10.67578125 C7.87492802 8.96256967 10.23865375 9.0994643 13.82421875 9.20703125 C14.9946875 9.23410156 16.16515625 9.26117188 17.37109375 9.2890625 C18.263125 9.32386719 19.15515625 9.35867187 20.07421875 9.39453125 C20.73421875 7.74453125 21.39421875 6.09453125 22.07421875 4.39453125 C23.39421875 4.72453125 24.71421875 5.05453125 26.07421875 5.39453125 C25.83105915 8.96087212 25.39869514 10.97271194 23.19921875 13.83203125 C18.46579501 16.19874312 14.17953537 15.21710416 9.07421875 14.39453125 C8.08421875 16.04453125 7.09421875 17.69453125 6.07421875 19.39453125 C12.99662238 20.16946734 17.13070355 19.45445206 22.640625 15.12890625 C23.31996094 14.5565625 23.99929687 13.98421875 24.69921875 13.39453125 C25.41722656 12.8221875 26.13523438 12.24984375 26.875 11.66015625 C28.62665271 10.25883408 30.35738786 8.83812815 32.07421875 7.39453125 C33.06421875 7.88953125 33.06421875 7.88953125 34.07421875 8.39453125 C33.82421875 10.20703125 33.82421875 10.20703125 33.07421875 12.39453125 C32.45546875 12.82765625 31.83671875 13.26078125 31.19921875 13.70703125 C28.75219627 15.36835491 28.75219627 15.36835491 27.63671875 18.89453125 C25.90338809 22.77719193 24.95789803 23.82256583 21.07421875 25.39453125 C18.32421875 25.51953125 18.32421875 25.51953125 16.07421875 25.39453125 C13.90322448 27.56552552 14.76345586 32.60989919 14.75732422 35.60009766 C14.85315333 40.96061252 15.50759323 46.04425033 16.69921875 51.26953125 C16.83932373 51.95281494 16.97942871 52.63609863 17.1237793 53.34008789 C17.61581421 55.52047738 17.61581421 55.52047738 19.07421875 58.39453125 C22.09591075 59.93159045 22.09591075 59.93159045 25.07421875 60.39453125 C25.07421875 61.38453125 25.07421875 62.37453125 25.07421875 63.39453125 C8.90421875 63.39453125 -7.26578125 63.39453125 -23.92578125 63.39453125 C-23.92578125 62.07453125 -23.92578125 60.75453125 -23.92578125 59.39453125 C-21.45078125 58.89953125 -21.45078125 58.89953125 -18.92578125 58.39453125 C-18.26578125 55.75453125 -17.60578125 53.11453125 -16.92578125 50.39453125 C-17.75722656 51.05582031 -18.58867187 51.71710938 -19.4453125 52.3984375 C-20.54254821 53.25184305 -21.64022769 54.10467826 -22.73828125 54.95703125 C-23.5590918 55.61348633 -23.5590918 55.61348633 -24.39648438 56.28320312 C-25.84797705 57.40041264 -27.38388696 58.40581992 -28.92578125 59.39453125 C-29.91578125 59.06453125 -30.90578125 58.73453125 -31.92578125 58.39453125 C-30.82459603 55.09097558 -30.31998728 54.69188777 -27.58203125 52.80078125 C-26.91300781 52.32769531 -26.24398438 51.85460937 -25.5546875 51.3671875 C-24.13541667 50.38541667 -22.71614583 49.40364583 -21.296875 48.421875 C-20.62785156 47.94878906 -19.95882813 47.47570312 -19.26953125 46.98828125 C-18.65271484 46.56224609 -18.03589844 46.13621094 -17.40039062 45.69726562 C-15.63449932 44.35669435 -15.63449932 44.35669435 -14.92578125 41.39453125 C-14.84471439 39.84031396 -14.81821227 38.28286098 -14.828125 36.7265625 C-14.83295898 35.38754883 -14.83295898 35.38754883 -14.83789062 34.02148438 C-14.84626953 33.09271484 -14.85464844 32.16394531 -14.86328125 31.20703125 C-14.86779297 30.26666016 -14.87230469 29.32628906 -14.87695312 28.35742188 C-14.88873499 26.03639413 -14.90518567 23.71549481 -14.92578125 21.39453125 C-13.60578125 21.06453125 -12.28578125 20.73453125 -10.92578125 20.39453125 C-11.02117188 19.79125 -11.1165625 19.18796875 -11.21484375 18.56640625 C-11.38113281 17.36757813 -11.38113281 17.36757813 -11.55078125 16.14453125 C-11.72480469 14.96117187 -11.72480469 14.96117187 -11.90234375 13.75390625 C-11.92933415 11.03687273 -11.39234439 9.65966815 -9.92578125 7.39453125 C-8.59244792 6.72786458 -7.25911458 6.06119792 -5.92578125 5.39453125 C-5.34828125 4.52828125 -4.77078125 3.66203125 -4.17578125 2.76953125 C-1.92578125 0.39453125 -1.92578125 0.39453125 0 0 Z " fill="#303B36" transform="translate(49.92578125,16.60546875)"/>
<path d="M0 0 C1.05815918 0.01232666 1.05815918 0.01232666 2.13769531 0.02490234 C15.69160872 0.31520956 26.99088887 5.26414589 36.86328125 14.69140625 C47.36660262 26.57340192 48.84829348 38.07656062 48.125 53.25 C47.2060162 62.45466029 41.493592 71.70450267 35.125 78.25 C34.465 78.25 33.805 78.25 33.125 78.25 C33.125 78.91 33.125 79.57 33.125 80.25 C29.94918036 82.5032001 26.51557955 84.33959793 23.125 86.25 C22.135 86.8275 21.145 87.405 20.125 88 C8.64049213 92.78521161 -4.09161242 92.5949786 -15.7421875 88.56640625 C-27.93991485 83.4409273 -37.46916325 74.81772597 -42.9453125 62.67578125 C-47.62955509 50.4534508 -46.91730023 38.37108769 -41.65625 26.5 C-35.21068998 13.60887995 -25.0396183 5.75865838 -11.46875 1.07421875 C-7.59444352 0.18565498 -3.95122873 -0.05612 0 0 Z M-35.15234375 20.984375 C-42.39767359 30.51338023 -43.64442526 40.51321144 -42.875 52.25 C-41.15163481 62.80742204 -35.1749178 72.55757616 -26.875 79.25 C-14.47679691 87.98228922 -2.145876 90.19367601 12.7265625 87.62890625 C24.43144826 84.48618633 33.71136223 77.51882988 40.125 67.25 C45.39674706 57.53539694 47.90312451 47.15053051 45.4375 36.1953125 C41.7066918 23.97691564 34.76630807 14.22256306 23.5625 7.9375 C2.29608864 -3.32845087 -20.11341712 3.40407906 -35.15234375 20.984375 Z " fill="#39423D" transform="translate(49.875,5.75)"/>
<path d="M0 0 C0.19916016 1.62808594 0.19916016 1.62808594 0.40234375 3.2890625 C0.58066254 4.73438322 0.75905169 6.17969526 0.9375 7.625 C1.02451172 8.33785156 1.11152344 9.05070312 1.20117188 9.78515625 C1.28818359 10.48769531 1.37519531 11.19023438 1.46484375 11.9140625 C1.543396 12.5529541 1.62194824 13.1918457 1.70288086 13.85009766 C2.07946915 16.57502493 2.54776688 19.28660129 3 22 C-4.92 22 -12.84 22 -21 22 C-19.87356322 14.11494253 -19.87356322 14.11494253 -16.625 11.5625 C-15.91472656 10.9953125 -15.20445313 10.428125 -14.47265625 9.84375 C-13.65667969 9.2353125 -12.84070312 8.626875 -12 8 C-11.02933594 7.2678125 -10.05867188 6.535625 -9.05859375 5.78125 C-1.2518706 0 -1.2518706 0 0 0 Z " fill="#F3F0E5" transform="translate(59,47)"/>
<path d="M0 0 C5.94 0 11.88 0 18 0 C14.63648778 3.36351222 11.48587436 6.36157445 7.8125 9.3125 C6.95269531 10.00988281 6.09289063 10.70726562 5.20703125 11.42578125 C3 13 3 13 1 13 C0.67 8.71 0.34 4.42 0 0 Z " fill="#F2EFE4" transform="translate(40,42)"/>
<path d="M0 0 C4.38982661 0.66512524 8.70028806 1.9068529 13 3 C12.67 3.66 12.34 4.32 12 5 C10.865625 5.309375 9.73125 5.61875 8.5625 5.9375 C4.76783002 6.65621357 4.76783002 6.65621357 3 10 C2.83300768 13.12521833 2.83300768 13.12521833 3 16 C0.03 16 -2.94 16 -6 16 C-6.33 13.03 -6.66 10.06 -7 7 C-5.02 7.99 -5.02 7.99 -3 9 C-2.01 9.33 -1.02 9.66 0 10 C-0.08378906 9.36191406 -0.16757812 8.72382813 -0.25390625 8.06640625 C-0.40666016 6.82697266 -0.40666016 6.82697266 -0.5625 5.5625 C-0.66691406 4.73878906 -0.77132812 3.91507813 -0.87890625 3.06640625 C-0.91886719 2.38449219 -0.95882812 1.70257812 -1 1 C-0.67 0.67 -0.34 0.34 0 0 Z " fill="#E4E2D8" transform="translate(50,21)"/>
<path d="M0 0 C0.66 0.99 1.32 1.98 2 3 C-7.89656857 11.57574994 -7.89656857 11.57574994 -15.1875 11.5 C-16.79537739 11.37406834 -18.40261461 11.22245986 -20 11 C-17.58513932 5.3250774 -17.58513932 5.3250774 -15.3125 4.0625 C-13 4 -13 4 -11.140625 4.35546875 C-9.0230007 4.75749893 -7.15761258 5.0811775 -5 5 C-1.97590636 2.72872666 -1.97590636 2.72872666 0 0 Z " fill="#EAE7DD" transform="translate(75,26)"/>
<path d="M0 0 C1.98 0.99 1.98 0.99 4 2 C5.65740715 2.37668344 7.32345271 2.72057545 9 3 C9.33 4.98 9.66 6.96 10 9 C7.03 9 4.06 9 1 9 C0.67 6.03 0.34 3.06 0 0 Z " fill="#F2EFE4" transform="translate(43,28)"/>
<path d="M0 0 C0.66 0.33 1.32 0.66 2 1 C-0.45627573 3.631724 -2.55352037 5.81527263 -6 7 C-8.25 6.625 -8.25 6.625 -10 6 C-6.87511433 3.47605388 -3.68685613 1.60298093 0 0 Z " fill="#313C37" transform="translate(75,87)"/>
<path d="M0 0 C1 3 1 3 -0.4375 6.1875 C-1.2109375 7.5796875 -1.2109375 7.5796875 -2 9 C-2.99 9 -3.98 9 -5 9 C-4.690625 8.236875 -4.38125 7.47375 -4.0625 6.6875 C-3.32106407 4.81210323 -2.63771783 2.91315348 -2 1 C-1.34 0.67 -0.68 0.34 0 0 Z " fill="#313B36" transform="translate(94,66)"/>
<path d="M0 0 C0 3.52032428 -0.70351351 4.4385343 -3 7 C-3.66 7 -4.32 7 -5 7 C-5 7.66 -5 8.32 -5 9 C-6.32 9.33 -7.64 9.66 -9 10 C-8.06409496 8.8944811 -7.12620142 7.79064547 -6.1875 6.6875 C-5.66542969 6.07261719 -5.14335938 5.45773438 -4.60546875 4.82421875 C-3.12827531 3.14575321 -1.59960869 1.56117966 0 0 Z " fill="#343E39" transform="translate(88,77)"/>
<path d="M0 0 C0.66 0.33 1.32 0.66 2 1 C2 1.66 2 2.32 2 3 C-0.8125 4.5625 -0.8125 4.5625 -4 6 C-4.99 5.67 -5.98 5.34 -7 5 C-4.88437775 2.67281553 -2.94982021 1.14186589 0 0 Z " fill="#303A35" transform="translate(33,9)"/>
<path d="M0 0 C1 3 1 3 -0.4375 6.1875 C-1.2109375 7.5796875 -1.2109375 7.5796875 -2 9 C-2.99 9 -3.98 9 -5 9 C-3.90931332 5.22454612 -3.0916909 2.52956528 0 0 Z " fill="#2D3833" transform="translate(12,28)"/>
</svg>
