<?xml version="1.0" encoding="UTF-8"?>
<svg version="1.1" xmlns="http://www.w3.org/2000/svg" width="103" height="96">
<path d="M0 0 C33.99 0 67.98 0 103 0 C103 31.68 103 63.36 103 96 C69.01 96 35.02 96 0 96 C0 64.32 0 32.64 0 0 Z " fill="#F4F1E6" transform="translate(0,0)"/>
<path d="M0 0 C33.99 0 67.98 0 103 0 C103 31.68 103 63.36 103 96 C69.01 96 35.02 96 0 96 C0 64.32 0 32.64 0 0 Z M16 20 C7.21938481 31.57055724 4.96822544 41.7388968 6 56 C8.01228104 68.61965398 14.51065728 79.14019104 24.75 86.6875 C31.95204291 91.49967582 39.30667952 94.61434438 48 95 C49.24716797 95.07734375 49.24716797 95.07734375 50.51953125 95.15625 C63.07685251 95.58740266 74.8235813 92.0268524 84.51171875 83.890625 C94.06026453 74.73664722 100.08214082 63.98749618 100.4375 50.5 C99.89561867 36.30948266 94.80934377 24.68122041 84.43359375 14.8515625 C63.56377299 -1.02692071 33.94331188 0.02471998 16 20 Z " fill="#F5F2E7" transform="translate(0,0)"/>
<path d="M0 0 C10.12725257 9.49549579 14.68020373 20.78369274 15.31640625 34.5625 C14.92969444 48.58500641 8.37425155 59.01496291 -1.43359375 68.4375 C-11.66046803 77.16860695 -24.02140238 80.02725146 -37.18359375 79.1875 C-49.09185168 78.12822885 -60.06797273 73.06737233 -68.18359375 64.1875 C-77.63892198 52.40132342 -80.56832897 39.01963667 -79.18359375 24.1875 C-78.32583314 20.52608758 -76.98046163 17.47895892 -75.18359375 14.1875 C-74.75949219 13.34703125 -74.33539063 12.5065625 -73.8984375 11.640625 C-68.10208641 0.98438066 -59.38963419 -5.43379011 -48.18359375 -9.8125 C-31.0785412 -14.7954845 -13.73140118 -11.39779991 0 0 Z M-66.9921875 6.19921875 C-74.7257818 16.01567635 -78.46078966 26.66115546 -77.18359375 39.1875 C-74.74089738 51.88024506 -68.32043805 61.78342503 -57.92578125 69.4609375 C-46.44372485 76.69038042 -34.64265826 77.99644503 -21.52734375 75.48828125 C-8.72343687 71.94327432 0.85947352 64.37041912 7.87109375 53.1796875 C8.96420321 50.87602708 9.40841915 48.69618667 9.81640625 46.1875 C8.94242188 46.67669922 8.94242188 46.67669922 8.05078125 47.17578125 C-4.65152098 53.946348 -17.60864304 55.36415092 -31.80859375 55.3125 C-32.96979736 55.31419189 -34.13100098 55.31588379 -35.32739258 55.31762695 C-41.24724508 55.30224855 -46.99780847 55.09628065 -52.87109375 54.375 C-56.98882403 53.94864101 -59.07677434 54.23818096 -62.49609375 56.625 C-63.82640625 57.8934375 -63.82640625 57.8934375 -65.18359375 59.1875 C-64.50270394 56.26764819 -63.60258141 53.83627696 -62.18359375 51.1875 C-62.72628906 51.00574219 -63.26898438 50.82398438 -63.828125 50.63671875 C-64.90126953 50.25966797 -64.90126953 50.25966797 -65.99609375 49.875 C-66.70378906 49.63136719 -67.41148438 49.38773438 -68.140625 49.13671875 C-70.37704156 48.09761889 -71.63136809 47.09465531 -73.18359375 45.1875 C-73.87109375 42.3125 -73.87109375 42.3125 -73.18359375 39.1875 C-68.21282486 34.25815418 -60.87058216 32.44864255 -54.18359375 31.1875 C-52.76669406 31.24447324 -51.34997701 31.30637678 -49.93359375 31.375 C-45.98498882 30.5650627 -45.98498882 30.5650627 -44.3125 27.26171875 C-43.04552961 24.78939252 -41.91059101 22.26927516 -40.79296875 19.7265625 C-39.46720272 16.81116438 -38.16527968 14.47125671 -36.24609375 11.9375 C-33.98359375 9.49375 -33.98359375 9.49375 -34.18359375 7.1875 C-29.89947345 8.71202929 -28.31889083 11.57553458 -25.93359375 15.3125 C-25.2271875 16.40820312 -24.52078125 17.50390625 -23.79296875 18.6328125 C-23.261875 19.47585937 -22.73078125 20.31890625 -22.18359375 21.1875 C-16.55211501 19.4209715 -12.60631675 15.65311725 -8.1796875 11.91210938 C-6.57208325 10.59663966 -4.88217749 9.3831861 -3.18359375 8.1875 C-1.69859375 8.6825 -1.69859375 8.6825 -0.18359375 9.1875 C-1.82820455 10.54315115 -3.47436292 11.89692487 -5.12109375 13.25 C-6.11496094 14.07757812 -7.10882813 14.90515625 -8.1328125 15.7578125 C-11.18359375 18.1875 -11.18359375 18.1875 -13.953125 19.9921875 C-16.38730376 21.59452879 -18.34236139 22.92422193 -20.18359375 25.1875 C-20.6272513 28.73676036 -20.12919316 31.75711381 -19.18359375 35.1875 C-17.05966869 35.8575834 -14.93441851 36.52346797 -12.80859375 37.1875 C-11.62523438 37.55875 -10.441875 37.93 -9.22265625 38.3125 C-6.39035936 39.27972606 -6.39035936 39.27972606 -4.18359375 39.1875 C-3.87109375 41.5 -3.87109375 41.5 -4.18359375 44.1875 C-12.16186503 51.36794415 -26.31743886 49.42632872 -36.30859375 49.3125 C-37.85285876 49.30244704 -39.39713013 49.29332529 -40.94140625 49.28515625 C-44.68893624 49.26333336 -48.43622321 49.22893206 -52.18359375 49.1875 C-52.18359375 50.1775 -52.18359375 51.1675 -52.18359375 52.1875 C-32.36219477 54.48176691 -9.49159058 55.72616455 7.81640625 44.1875 C7.76872222 42.30869128 7.76872222 42.30869128 6.81640625 40.1875 C1.78379735 36.03559766 -4.59438697 33.1875 -11.18359375 33.1875 C-11.18359375 32.5275 -11.18359375 31.8675 -11.18359375 31.1875 C-3.28322538 32.60695153 4.63316495 34.81076843 10.81640625 40.1875 C12.69085151 38.31305474 12.0772047 35.32138582 12.12890625 32.8125 C12.00081611 20.19562086 7.30069436 11.96597131 -1.25 3.02734375 C-11.81213198 -7.08131566 -23.35094666 -9.42193712 -37.52734375 -9.1484375 C-49.38205141 -8.56439042 -59.1860394 -2.48364577 -66.9921875 6.19921875 Z " fill="#323C37" transform="translate(85.18359375,15.8125)"/>
<path d="M0 0 C10.12725257 9.49549579 14.68020373 20.78369274 15.31640625 34.5625 C14.92969444 48.58500641 8.37425155 59.01496291 -1.43359375 68.4375 C-11.66046803 77.16860695 -24.02140238 80.02725146 -37.18359375 79.1875 C-49.09185168 78.12822885 -60.06797273 73.06737233 -68.18359375 64.1875 C-77.63892198 52.40132342 -80.56832897 39.01963667 -79.18359375 24.1875 C-78.32583314 20.52608758 -76.98046163 17.47895892 -75.18359375 14.1875 C-74.75949219 13.34703125 -74.33539063 12.5065625 -73.8984375 11.640625 C-68.10208641 0.98438066 -59.38963419 -5.43379011 -48.18359375 -9.8125 C-31.0785412 -14.7954845 -13.73140118 -11.39779991 0 0 Z M-66.9921875 6.19921875 C-74.7257818 16.01567635 -78.46078966 26.66115546 -77.18359375 39.1875 C-74.74089738 51.88024506 -68.32043805 61.78342503 -57.92578125 69.4609375 C-46.44372485 76.69038042 -34.64265826 77.99644503 -21.52734375 75.48828125 C-8.72343687 71.94327432 0.85947352 64.37041912 7.87109375 53.1796875 C8.96420321 50.87602708 9.40841915 48.69618667 9.81640625 46.1875 C8.94242188 46.67669922 8.94242188 46.67669922 8.05078125 47.17578125 C-4.78247615 54.01614958 -17.84389455 55.36072769 -32.18359375 55.3125 C-33.3334375 55.31636719 -34.48328125 55.32023437 -35.66796875 55.32421875 C-41.27688961 55.31775686 -46.66140428 55.19883121 -52.18359375 54.1875 C-52.18359375 53.5275 -52.18359375 52.8675 -52.18359375 52.1875 C-51.58498535 52.25678711 -50.98637695 52.32607422 -50.36962891 52.39746094 C-31.06023873 54.49850204 -8.99314749 55.39386916 7.81640625 44.1875 C7.76872222 42.30869128 7.76872222 42.30869128 6.81640625 40.1875 C1.78379735 36.03559766 -4.59438697 33.1875 -11.18359375 33.1875 C-11.18359375 32.5275 -11.18359375 31.8675 -11.18359375 31.1875 C-3.28322538 32.60695153 4.63316495 34.81076843 10.81640625 40.1875 C12.69085151 38.31305474 12.0772047 35.32138582 12.12890625 32.8125 C12.00081611 20.19562086 7.30069436 11.96597131 -1.25 3.02734375 C-11.81213198 -7.08131566 -23.35094666 -9.42193712 -37.52734375 -9.1484375 C-49.38205141 -8.56439042 -59.1860394 -2.48364577 -66.9921875 6.19921875 Z " fill="#35403A" transform="translate(85.18359375,15.8125)"/>
<path d="M0 0 C7.96246778 8.90922462 8.43584148 19.6519793 8 31 C5 31 5 31 2.875 29.1875 C-2.32881985 25.22807185 -8.57313617 23.8239569 -15 23 C-15 23.66 -15 24.32 -15 25 C-14.443125 25.09796875 -13.88625 25.1959375 -13.3125 25.296875 C-6.93228181 26.54705289 -0.7008969 28.2991031 4 33 C3.8359375 34.99609375 3.8359375 34.99609375 3 37 C-8.5465198 44.05620654 -21.64852004 45.1795797 -34.875 45.125 C-35.80441406 45.12886719 -36.73382813 45.13273437 -37.69140625 45.13671875 C-43.85084812 45.12812818 -49.88453756 44.72973308 -56 44 C-56 43.01 -56 42.02 -56 41 C-54.59476074 41.02356567 -54.59476074 41.02356567 -53.16113281 41.04760742 C-49.62738314 41.0992666 -46.09404473 41.13660422 -42.56005859 41.16479492 C-41.04143879 41.17972112 -39.52286083 41.20006959 -38.00439453 41.22631836 C-22.31378469 41.63695473 -22.31378469 41.63695473 -8 36 C-7.74969023 33.41619823 -7.74969023 33.41619823 -8 31 C-9.74985354 30.52029877 -11.49988891 30.04126076 -13.25 29.5625 C-14.22453125 29.29566406 -15.1990625 29.02882813 -16.203125 28.75390625 C-18.46372653 28.14455416 -20.72622009 27.55761745 -23 27 C-24.5111497 23.42387611 -24.94743432 20.79467182 -24 17 C-20.36683638 12.70298258 -15.49881469 9.56318318 -10.90576172 6.37646484 C-9.07137479 5.0515515 -7.38913031 3.63850742 -5.69140625 2.14453125 C-3 0 -3 0 0 0 Z " fill="#F2EFE5" transform="translate(89,24)"/>
<path d="M0 0 C0.33 0 0.66 0 1 0 C1.66 3.63 2.32 7.26 3 11 C-4.2244898 17 -4.2244898 17 -7.875 17 C-10 16 -10 16 -12 14 C-7.66335081 10.88303339 -4.19591612 10.44033187 1 10 C1 9.34 1 8.68 1 8 C-0.75029762 8.31082872 -2.50022694 8.62373179 -4.25 8.9375 C-5.22453125 9.11152344 -6.1990625 9.28554688 -7.203125 9.46484375 C-9.49721795 9.90379729 -11.74291971 10.40348592 -14 11 C-14.41870553 13.33071879 -14.41870553 13.33071879 -14 16 C-11.60140956 18.33630748 -11.60140956 18.33630748 -9 20 C-11 22 -11 22 -13.9375 22.25 C-17 22 -17 22 -20 20 C-20 20.66 -20 21.32 -20 22 C-23.79832675 21.45738189 -25.69272487 20.04889927 -28 17 C-28.5625 14 -28.5625 14 -28 11 C-23.26688736 5.63580568 -14.92179399 3.10044419 -8 2 C-6.56371543 1.93733488 -5.1249445 1.91313653 -3.6875 1.9375 C-1.8621875 1.9684375 -1.8621875 1.9684375 0 2 C0 1.34 0 0.68 0 0 Z " fill="#EAE8DD" transform="translate(39,44)"/>
<path d="M0 0 C0.66 0.66 1.32 1.32 2 2 C2.33 1.67 2.66 1.34 3 1 C5.33297433 0.95907063 7.66705225 0.95758277 10 1 C9.34 1.33 8.68 1.66 8 2 C8 2.66 8 3.32 8 4 C8.8353125 4.14695312 8.8353125 4.14695312 9.6875 4.296875 C16.06771819 5.54705289 22.2991031 7.2991031 27 12 C26.8359375 13.99609375 26.8359375 13.99609375 26 16 C14.4534802 23.05620654 1.35147996 24.1795797 -11.875 24.125 C-12.80441406 24.12886719 -13.73382813 24.13273437 -14.69140625 24.13671875 C-20.85084812 24.12812818 -26.88453756 23.72973308 -33 23 C-33 22.01 -33 21.02 -33 20 C-32.06317383 20.01571045 -31.12634766 20.0314209 -30.16113281 20.04760742 C-26.62738314 20.0992666 -23.09404473 20.13660422 -19.56005859 20.16479492 C-18.04143879 20.17972112 -16.52286083 20.20006959 -15.00439453 20.22631836 C0.68621531 20.63695473 0.68621531 20.63695473 15 15 C15.25030977 12.41619823 15.25030977 12.41619823 15 10 C13.25014646 9.52029877 11.50011109 9.04126076 9.75 8.5625 C8.28820312 8.16224609 8.28820312 8.16224609 6.796875 7.75390625 C4.53627347 7.14455416 2.27377991 6.55761745 0 6 C0 4.02 0 2.04 0 0 Z " fill="#E0DED3" transform="translate(66,45)"/>
<path d="M0 0 C3.59854349 1.1995145 4.18616815 2.27925223 6.25 5.375 C7.06210937 6.56222656 7.06210937 6.56222656 7.890625 7.7734375 C9 10 9 10 8 13 C7.34 12.67 6.68 12.34 6 12 C6 10.68 6 9.36 6 8 C5.01 8.66 4.02 9.32 3 10 C3.33 11.98 3.66 13.96 4 16 C2.40629329 17.36646148 0.79967018 18.71787166 -0.8125 20.0625 C-1.70582031 20.81660156 -2.59914063 21.57070313 -3.51953125 22.34765625 C-4.33808594 22.89292969 -5.15664063 23.43820313 -6 24 C-6.99 23.67 -7.98 23.34 -9 23 C-10.01127399 14.33193722 -6.86641411 9.05740146 -2 2 C-1.34 1.34 -0.68 0.68 0 0 Z " fill="#F0EDE2" transform="translate(52,28)"/>
<path d="M0 0 C0.66 0.66 1.32 1.32 2 2 C4.13020933 2.64093866 4.13020933 2.64093866 6.5 3.0625 C10.82352941 3.91176471 10.82352941 3.91176471 13 5 C12.67 5.99 12.34 6.98 12 8 C3.94610177 11.36392266 -4.67190676 11.38498857 -13.25 11.1875 C-14.38824219 11.17396484 -15.52648437 11.16042969 -16.69921875 11.14648438 C-19.46666987 11.11160054 -22.23306105 11.06259317 -25 11 C-25 10.01 -25 9.02 -25 8 C-22.625 6.25 -22.625 6.25 -20 5 C-19.34 5.33 -18.68 5.66 -18 6 C-13.07359656 6.41251687 -8.52282992 6.6526414 -3.9375 4.6875 C-1.7843899 2.96162871 -1.7843899 2.96162871 0 0 Z " fill="#EFEDE2" transform="translate(65,52)"/>
<path d="M0 0 C0.33 0 0.66 0 1 0 C1.33 2.31 1.66 4.62 2 7 C2.89203125 7.19335938 3.7840625 7.38671875 4.703125 7.5859375 C5.87359375 7.84632812 7.0440625 8.10671875 8.25 8.375 C9.99023438 8.75785156 9.99023438 8.75785156 11.765625 9.1484375 C14.48075863 9.86329152 16.65951464 10.46968265 19 12 C19.75 14.625 19.75 14.625 20 17 C17 19 17 19 14.8125 18.625 C13.9153125 18.315625 13.9153125 18.315625 13 18 C13.99 16.68 14.98 15.36 16 14 C15.22914062 13.87882812 14.45828125 13.75765625 13.6640625 13.6328125 C12.15972656 13.38144531 12.15972656 13.38144531 10.625 13.125 C9.62726563 12.96257813 8.62953125 12.80015625 7.6015625 12.6328125 C5 12 5 12 3 10 C2.34 10.66 1.68 11.32 1 12 C-0.32 12 -1.64 12 -3 12 C-3.99 12.495 -3.99 12.495 -5 13 C-6.54023996 13.06950541 -8.08334988 13.08452357 -9.625 13.0625 C-10.85089844 13.04896484 -10.85089844 13.04896484 -12.1015625 13.03515625 C-13.04128906 13.01775391 -13.04128906 13.01775391 -14 13 C-13.34 11.68 -12.68 10.36 -12 9 C-11.34 9 -10.68 9 -10 9 C-10 9.66 -10 10.32 -10 11 C-7.04021368 10.59995382 -7.04021368 10.59995382 -4 9 C-2.88249623 6.96394199 -2.20624104 5.00031087 -1.54296875 2.77734375 C-1 1 -1 1 0 0 Z " fill="#424B46" transform="translate(62,43)"/>
<path d="M0 0 C0 0.99 0 1.98 0 3 C-1.485 3.23783203 -1.485 3.23783203 -3 3.48046875 C-10.59545356 4.7904274 -16.7293751 6.26503834 -23 11 C-22.31911019 13.91985181 -21.41898766 16.35122304 -20 19 C-22.375 18.6875 -22.375 18.6875 -25 18 C-27.33043558 14.50434664 -27.58763244 13.1134271 -27 9 C-20.56473681 1.70670172 -9.21069862 -0.18060193 0 0 Z " fill="#3B443F" transform="translate(38,46)"/>
<path d="M0 0 C0.99 0 1.98 0 3 0 C3.33 1.32 3.66 2.64 4 4 C-3.00869565 10 -3.00869565 10 -6.875 10 C-9 9 -9 9 -11 7 C-6.66335081 3.88303339 -3.19591612 3.44033187 2 3 C2 2.34 2 1.68 2 1 C1.34 0.67 0.68 0.34 0 0 Z " fill="#D9D7CD" transform="translate(38,51)"/>
<path d="M0 0 C0.33 0 0.66 0 1 0 C1.7230591 7.11008111 1.7230591 7.11008111 -1.4375 11 C-5.33934623 13.79772667 -9.3930392 13.46069608 -14 13 C-13.34 11.68 -12.68 10.36 -12 9 C-11.34 9 -10.68 9 -10 9 C-10 9.66 -10 10.32 -10 11 C-7.04021368 10.59995382 -7.04021368 10.59995382 -4 9 C-2.88249623 6.96394199 -2.20624104 5.00031087 -1.54296875 2.77734375 C-1 1 -1 1 0 0 Z " fill="#E2E0D6" transform="translate(62,43)"/>
<path d="M0 0 C0 0.99 0 1.98 0 3 C-1.5823006 3.33820166 -3.16589375 3.67035939 -4.75 4 C-6.07257812 4.2784375 -6.07257812 4.2784375 -7.421875 4.5625 C-10 5 -10 5 -14 5 C-14 4.34 -14 3.68 -14 3 C-14.66 2.67 -15.32 2.34 -16 2 C-10.54538831 0.61470179 -5.63281599 -0.2396943 0 0 Z " fill="#3F4843" transform="translate(38,46)"/>
<path d="M0 0 C5.27315333 0.4452885 10.01770224 1.08373163 15 3 C12 5 12 5 9.84375 4.79296875 C9.0703125 4.59316406 8.296875 4.39335938 7.5 4.1875 C6.7265625 3.99542969 5.953125 3.80335937 5.15625 3.60546875 C3.42314185 3.11881701 1.70776005 2.56925335 0 2 C0 1.34 0 0.68 0 0 Z " fill="#39433E" transform="translate(74,47)"/>
<path d="M0 0 C0.66 0 1.32 0 2 0 C2.625 2.375 2.625 2.375 3 5 C1 7 1 7 -1.625 7.125 C-2.40875 7.08375 -3.1925 7.0425 -4 7 C-4.33 6.01 -4.66 5.02 -5 4 C-3.35 3.34 -1.7 2.68 0 2 C0 1.34 0 0.68 0 0 Z " fill="#555D57" transform="translate(56,47)"/>
<path d="M0 0 C5.61 0 11.22 0 17 0 C17.33 0.99 17.66 1.98 18 3 C15.36 3 12.72 3 10 3 C10 2.34 10 1.68 10 1 C6.7 1 3.4 1 0 1 C0 0.67 0 0.34 0 0 Z " fill="#3D4540" transform="translate(48,63)"/>
<path d="M0 0 C0.33 0.66 0.66 1.32 1 2 C-1.75078884 2.91692961 -3.35948913 3.10886083 -6.1875 3.0625 C-8.0746875 3.0315625 -8.0746875 3.0315625 -10 3 C-9.67 2.01 -9.34 1.02 -9 0 C-3.375 -1.125 -3.375 -1.125 0 0 Z " fill="#3E4742" transform="translate(68,69)"/>
<path d="M0 0 C-1 3 -1 3 -3.875 4.75 C-7 6 -7 6 -10 5 C-5.16129032 0 -5.16129032 0 0 0 Z " fill="#303B36" transform="translate(24,49)"/>
<path d="M0 0 C-0.33 0.66 -0.66 1.32 -1 2 C-4.4375 2.75 -4.4375 2.75 -8 3 C-8.66 2.34 -9.32 1.68 -10 1 C-3.71428571 -1.42857143 -3.71428571 -1.42857143 0 0 Z " fill="#313C36" transform="translate(77,68)"/>
<path d="M0 0 C0.9075 0.226875 1.815 0.45375 2.75 0.6875 C2.75 1.6775 2.75 2.6675 2.75 3.6875 C1.96625 3.48125 1.1825 3.275 0.375 3.0625 C-0.49125 2.93875 -1.3575 2.815 -2.25 2.6875 C-2.91 3.3475 -3.57 4.0075 -4.25 4.6875 C-5.24 4.0275 -6.23 3.3675 -7.25 2.6875 C-4.61280971 0.1517401 -3.74095095 -0.35970682 0 0 Z " fill="#3C4540" transform="translate(67.25,50.3125)"/>
<path d="M0 0 C-0.33 1.32 -0.66 2.64 -1 4 C-2.98 4.33 -4.96 4.66 -7 5 C-6.67 3.68 -6.34 2.36 -6 1 C-3.92446352 0.4465236 -2.15634036 0 0 0 Z " fill="#404944" transform="translate(83,65)"/>
<path d="M0 0 C-0.99 1.485 -0.99 1.485 -2 3 C-3.9453125 3.29296875 -3.9453125 3.29296875 -6.125 3.1875 C-7.40375 3.125625 -8.6825 3.06375 -10 3 C-9 1 -9 1 -7.25 0.375 C-4.79549443 -0.03408426 -2.4840589 -0.06900164 0 0 Z " fill="#EDEADF" transform="translate(71,65)"/>
<path d="M0 0 C2.31 0 4.62 0 7 0 C7 0.66 7 1.32 7 2 C4.03 2.66 1.06 3.32 -2 4 C-1.34 2.68 -0.68 1.36 0 0 Z " fill="#3C4540" transform="translate(33,52)"/>
<path d="M0 0 C0.66 0 1.32 0 2 0 C3.625 2 3.625 2 5 4 C2.69 4 0.38 4 -2 4 C-1.34 2.68 -0.68 1.36 0 0 Z " fill="#EBE8DE" transform="translate(50,52)"/>
<path d="M0 0 C0.33 0.99 0.66 1.98 1 3 C-0.65 3.33 -2.3 3.66 -4 4 C-4 3.34 -4 2.68 -4 2 C-4.66 1.67 -5.32 1.34 -6 1 C-3.92446352 0.4465236 -2.15634036 0 0 0 Z " fill="#5A605A" transform="translate(28,47)"/>
</svg>
