<?xml version="1.0" encoding="UTF-8"?>
<svg version="1.1" xmlns="http://www.w3.org/2000/svg" width="103" height="96">
<path d="M0 0 C33.99 0 67.98 0 103 0 C103 31.68 103 63.36 103 96 C69.01 96 35.02 96 0 96 C0 64.32 0 32.64 0 0 Z " fill="#F2EFE4" transform="translate(0,0)"/>
<path d="M0 0 C33.99 0 67.98 0 103 0 C103 31.68 103 63.36 103 96 C69.01 96 35.02 96 0 96 C0 64.32 0 32.64 0 0 Z M14 21 C6.52694113 31.16336007 2.89657963 42.39614196 4 55 C5.69755915 63.72060385 8.31597027 71.12846171 14 78 C14.52851563 78.67417969 15.05703125 79.34835938 15.6015625 80.04296875 C22.93010479 88.38846735 35.04862904 94.48380613 46.12890625 95.203125 C61.44268575 95.41218684 74.66188721 91.84123184 85.96484375 81.15625 C95.07091691 71.50835674 98.63460901 60.32159992 98.47265625 47.2265625 C97.94233068 34.42957597 91.59411675 23.68317346 82.46484375 14.921875 C61.00106898 -1.81374653 32.3047503 1.08291419 14 21 Z " fill="#F5F2E7" transform="translate(0,0)"/>
<path d="M0 0 C6.71680075 0.46861401 10.90324304 3.58352247 15.25 8.5 C17.35792995 10.99325048 18.49039132 12.98078264 20 16 C19.505 10.06 19.505 10.06 19 4 C23.66725242 5.16681311 24.3659405 6.13671273 27 10 C28.25 12.8125 28.25 12.8125 29 15 C30.32 15 31.64 15 33 15 C33.66515625 15.21527344 34.3303125 15.43054687 35.015625 15.65234375 C37.05726041 16.21676505 37.05726041 16.21676505 38.921875 15.00390625 C39.52515625 14.52824219 40.1284375 14.05257813 40.75 13.5625 C41.36359375 13.08941406 41.9771875 12.61632813 42.609375 12.12890625 C43.06828125 11.75636719 43.5271875 11.38382813 44 11 C44.495 12.98 44.495 12.98 45 15 C39.25 20 39.25 20 37 20 C37.495 21.485 37.495 21.485 38 23 C38.11854556 24.83056393 38.17517233 26.66564306 38.1875 28.5 C38.20167969 29.4590625 38.21585938 30.418125 38.23046875 31.40625 C38 34 38 34 36 37 C33.375 37.6875 33.375 37.6875 31 38 C31 38.99 31 39.98 31 41 C29.02 41 27.04 41 25 41 C24.67 40.01 24.34 39.02 24 38 C23.67 38.99 23.34 39.98 23 41 C22.01 41 21.02 41 20 41 C20.33 38.69 20.66 36.38 21 34 C20.2575 34.78375 19.515 35.5675 18.75 36.375 C16 39 16 39 12 41 C21.57 41.33 31.14 41.66 41 42 C41 51.57 41 61.14 41 71 C22.52 71 4.04 71 -15 71 C-15.33 68.03 -15.66 65.06 -16 62 C-17.32 62.66 -18.64 63.32 -20 64 C-20.66 63.01 -21.32 62.02 -22 61 C-21.030625 60.46375 -20.06125 59.9275 -19.0625 59.375 C-16.36416811 57.20998548 -16.00608538 56.03379489 -15.37890625 52.55078125 C-15.14730529 49.02688358 -15.00955654 45.531143 -15 42 C-13.68644531 41.98582031 -12.37289063 41.97164062 -11.01953125 41.95703125 C-9.28381949 41.91012012 -7.54814348 41.86187279 -5.8125 41.8125 C-4.94818359 41.80669922 -4.08386719 41.80089844 -3.19335938 41.79492188 C1.26724974 41.64110777 3.37351722 41.49459167 6.96875 38.65625 C9.23472631 35.73627471 9.23472631 35.73627471 11.3125 32.6875 C11.869375 31.800625 12.42625 30.91375 13 30 C13.58394531 30.20109375 14.16789062 30.4021875 14.76953125 30.609375 C17.49298653 31.0863374 18.37678541 30.71361965 20.6875 29.25 C23.15804132 27.37725562 23.90733736 26.35119653 24.70703125 23.3203125 C25.11707047 19.19805157 25.31909175 15.95727526 24 12 C23.34 14.97 22.68 17.94 22 21 C18 20 18 20 16.33203125 17.71484375 C15.83058594 16.79832031 15.32914063 15.88179687 14.8125 14.9375 C13.89460985 13.28065019 12.96229497 11.63146008 12 10 C11.67 10 11.34 10 11 10 C11.495 10.9590625 11.495 10.9590625 12 11.9375 C14.35667238 19.15480916 13.17596449 26.20017859 10 33 C8.125 35.625 8.125 35.625 6 37 C3.4375 37.0625 3.4375 37.0625 1 36 C-2.05761885 31.99244131 -2.45541604 28.65409664 -2.6875 23.6875 C-2.75324219 22.43324219 -2.81898437 21.17898437 -2.88671875 19.88671875 C-2.92410156 18.93410156 -2.96148437 17.98148438 -3 17 C-3.18175781 17.60328125 -3.36351563 18.2065625 -3.55078125 18.828125 C-5.67952522 25.59643917 -5.67952522 25.59643917 -7.6875 28.125 C-9.71686266 31.02408952 -9.24584256 33.55820415 -9 37 C-8.57145005 39.31036915 -8.57145005 39.31036915 -8 41 C-9.9375 40.6875 -9.9375 40.6875 -12 40 C-13.24508968 36.26473095 -13.67158568 32.87233444 -13 29 C-11.84570913 27.07080057 -10.52460598 25.40574004 -9.12109375 23.65234375 C-7.34691866 21.03744457 -7.54492948 19.05547348 -8 16 C-8.92414941 12.72435637 -8.92414941 12.72435637 -10 10 C-9.34 9.67 -8.68 9.34 -8 9 C-3.92177426 10.93179114 -1.50310934 13.27395782 1 17 C1.57421875 20.2265625 1.57421875 20.2265625 1.6875 23.625 C1.86730996 28.39647939 1.86730996 28.39647939 3 33 C6.28584434 32.27794908 6.28584434 32.27794908 7.6875 29 C9.61363437 23.99000156 9.9960521 19.03317562 8.30859375 13.89453125 C6.01681077 8.93699233 2.71562804 4.96333658 -1 1 C-0.67 0.67 -0.34 0.34 0 0 Z " fill="#28342F" transform="translate(39,11)"/>
<path d="M0 0 C1.44921875 2.109375 1.44921875 2.109375 2.6875 4.75 C3.10386719 5.61109375 3.52023438 6.4721875 3.94921875 7.359375 C7.98764153 17.50797647 7.29070502 31.18566795 3.41015625 41.26953125 C0.40246806 47.09328206 -3.52529648 52.35019765 -9 56 C-9 46.43 -9 36.86 -9 27 C-19.23 27 -29.46 27 -40 27 C-38.68 26.01 -37.36 25.02 -36 24 C-34.7315625 22.6696875 -34.7315625 22.6696875 -33.4375 21.3125 C-31 19 -31 19 -28 19 C-28.66 21.31 -29.32 23.62 -30 26 C-29.01 26 -28.02 26 -27 26 C-26.67 24.68 -26.34 23.36 -26 22 C-25.67 23.32 -25.34 24.64 -25 26 C-23.02 26 -21.04 26 -19 26 C-19 25.01 -19 24.02 -19 23 C-18.195625 22.71125 -17.39125 22.4225 -16.5625 22.125 C-13.8673532 21.26737432 -13.8673532 21.26737432 -13 19 C-13.16156517 16.74962793 -13.32913783 14.49968529 -13.5 12.25 C-13.5805841 5.71597241 -13.5805841 5.71597241 -11.140625 2.70703125 C-4.19104104 -2.07364661 -4.19104104 -2.07364661 0 0 Z " fill="#F4F1E6" transform="translate(89,26)"/>
<path d="M0 0 C9.14930283 7.54718178 15.26644868 16.40087682 18 28 C19.21825922 42.43495518 17.19111309 53.91808564 8.05859375 65.59765625 C0.150704 74.82602854 -10.79442776 80.88557819 -23 82 C-37.38981399 82.91390274 -49.44076508 80.05953991 -60.7421875 70.73828125 C-70.48034177 61.53471409 -75.93352651 49.99373328 -76.375 36.5 C-75.96990059 24.61708403 -71.41972161 13.36886075 -63.25 4.6875 C-45.65218777 -11.67008546 -19.83915713 -13.76831695 0 0 Z M-65 11 C-72.70220398 21.21379224 -73.94637861 31.51803345 -73 44 C-72.36633079 47.23263135 -71.39275961 50.02320048 -70 53 C-69.70996094 53.68320313 -69.41992188 54.36640625 -69.12109375 55.0703125 C-64.47987955 65.2848676 -56.25300339 72.44609381 -45.93969727 76.88720703 C-40.42346353 78.91883814 -35.41360865 79.47922883 -29.5625 79.375 C-28.31146484 79.3586853 -28.31146484 79.3586853 -27.03515625 79.34204102 C-15.02291452 79.03117734 -5.55769687 75.11832019 3.33203125 66.82421875 C11.45973379 58.09334719 15.4067145 48.59966257 15.3125 36.625 C15.30686035 35.87404053 15.3012207 35.12308105 15.29541016 34.34936523 C15.17298812 28.75976879 14.55035607 24.0427495 12 19 C11.5978125 18.18273437 11.195625 17.36546875 10.78125 16.5234375 C5.84396008 7.44430993 -1.35786002 0.78015715 -11 -3 C-11.70125 -3.29777344 -12.4025 -3.59554688 -13.125 -3.90234375 C-32.15790369 -10.87893176 -52.15721167 -4.15449023 -65 11 Z " fill="#353F3A" transform="translate(80,13)"/>
<path d="M0 0 C6.71680075 0.46861401 10.90324304 3.58352247 15.25 8.5 C17.35792995 10.99325048 18.49039132 12.98078264 20 16 C19.505 10.06 19.505 10.06 19 4 C23.6205109 5.15512773 24.33984027 6.23908452 27 10 C28.26237731 12.52475462 28.09856404 14.31200466 28.0625 17.125 C28.05347656 18.03507812 28.04445312 18.94515625 28.03515625 19.8828125 C28.02355469 20.58148437 28.01195312 21.28015625 28 22 C27.01 22 26.02 22 25 22 C25.020625 20.906875 25.04125 19.81375 25.0625 18.6875 C25.18544452 15.05615809 25.18544452 15.05615809 24 12 C23.34 14.97 22.68 17.94 22 21 C18 20 18 20 16.33203125 17.71484375 C15.83058594 16.79832031 15.32914063 15.88179687 14.8125 14.9375 C13.89460985 13.28065019 12.96229497 11.63146008 12 10 C11.67 10 11.34 10 11 10 C11.33 10.639375 11.66 11.27875 12 11.9375 C14.35667238 19.15480916 13.17596449 26.20017859 10 33 C8.125 35.625 8.125 35.625 6 37 C3.4375 37.0625 3.4375 37.0625 1 36 C-2.05761885 31.99244131 -2.45541604 28.65409664 -2.6875 23.6875 C-2.75324219 22.43324219 -2.81898437 21.17898437 -2.88671875 19.88671875 C-2.92410156 18.93410156 -2.96148437 17.98148438 -3 17 C-3.18175781 17.60328125 -3.36351562 18.2065625 -3.55078125 18.828125 C-5.67952522 25.59643917 -5.67952522 25.59643917 -7.6875 28.125 C-9.71686266 31.02408952 -9.24584256 33.55820415 -9 37 C-8.57145005 39.31036915 -8.57145005 39.31036915 -8 41 C-9.9375 40.6875 -9.9375 40.6875 -12 40 C-13.24508968 36.26473095 -13.67158568 32.87233444 -13 29 C-11.84570913 27.07080057 -10.52460598 25.40574004 -9.12109375 23.65234375 C-7.34691866 21.03744457 -7.54492948 19.05547348 -8 16 C-8.92414941 12.72435637 -8.92414941 12.72435637 -10 10 C-9.34 9.67 -8.68 9.34 -8 9 C-3.92177426 10.93179114 -1.50310934 13.27395782 1 17 C1.57421875 20.2265625 1.57421875 20.2265625 1.6875 23.625 C1.86730996 28.39647939 1.86730996 28.39647939 3 33 C6.28584434 32.27794908 6.28584434 32.27794908 7.6875 29 C9.61363437 23.99000156 9.9960521 19.03317562 8.30859375 13.89453125 C6.01681077 8.93699233 2.71562804 4.96333658 -1 1 C-0.67 0.67 -0.34 0.34 0 0 Z " fill="#313C37" transform="translate(39,11)"/>
<path d="M0 0 C4.54349056 2.98572237 6.46755206 6.31434332 8.7890625 11.07421875 C9.9208657 13.32627421 9.9208657 13.32627421 13 14 C13.33 10.7 13.66 7.4 14 4 C14.66 4.33 15.32 4.66 16 5 C17.14176013 10.51850728 17.47074983 14.76201036 15 20 C12.49919755 22.01694047 9.8637214 23.55481967 7 25 C7 24.34 7 23.68 7 23 C3.57372982 24.39669612 2.22587312 25.78919149 0.4375 29 C-1.2572434 32.02275544 -1.9974895 32.99832634 -5 35 C-7.60245498 35.14221065 -10.09117684 35.18802932 -12.6875 35.125 C-13.38939453 35.11597656 -14.09128906 35.10695312 -14.81445312 35.09765625 C-16.54311525 35.07413704 -18.27160145 35.03826713 -20 35 C-18.515 34.505 -18.515 34.505 -17 34 C-17.33 33.484375 -17.66 32.96875 -18 32.4375 C-19.41178452 28.99627523 -19.43260731 26.70806262 -19 23 C-17.85411774 20.86898874 -16.55335337 18.92424514 -15.1796875 16.93359375 C-13.6148985 14.36879059 -13.22273473 11.96979642 -13 9 C-12.34 9.33 -11.68 9.66 -11 10 C-10.63856021 13.49544305 -10.55527676 16.97275538 -10.44140625 20.484375 C-9.9804872 24.15541165 -9.31045504 26.13091381 -7 29 C-3.87364791 29.41746608 -3.87364791 29.41746608 -1 29 C1.92622231 22.10247599 3.94439529 15.52778858 3 8 C1.61785878 4.64838754 1.61785878 4.64838754 0 2 C0 1.34 0 0.68 0 0 Z " fill="#F1EEE3" transform="translate(48,18)"/>
<path d="M0 0 C4.54349056 2.98572237 6.46755206 6.31434332 8.7890625 11.07421875 C9.9208657 13.32627421 9.9208657 13.32627421 13 14 C13.33 10.7 13.66 7.4 14 4 C14.66 4.33 15.32 4.66 16 5 C17.14176013 10.51850728 17.47074983 14.76201036 15 20 C12.49919755 22.01694047 9.8637214 23.55481967 7 25 C7 24.34 7 23.68 7 23 C3.63279613 24.39332574 2.0140476 25.9789286 0 29 C0 26.03469732 0.45149229 24.58364492 1.5 21.875 C3.58570475 15.76686467 4.11360658 10.55201509 1.5 4.5625 C1.005 3.716875 0.51 2.87125 0 2 C0 1.34 0 0.68 0 0 Z " fill="#EBE8DE" transform="translate(48,18)"/>
<path d="M0 0 C5.01009707 1.43145631 7.10619424 3.82951522 10 8 C9 11 9 11 7 14 C6.67 12.02 6.34 10.04 6 8 C5.81824219 8.60328125 5.63648438 9.2065625 5.44921875 9.828125 C3.32047478 16.59643917 3.32047478 16.59643917 1.3125 19.125 C-0.71686266 22.02408952 -0.24584256 24.55820415 0 28 C0.42854995 30.31036915 0.42854995 30.31036915 1 32 C-0.9375 31.6875 -0.9375 31.6875 -3 31 C-4.24508968 27.26473095 -4.67158568 23.87233444 -4 20 C-2.84570913 18.07080057 -1.52460598 16.40574004 -0.12109375 14.65234375 C1.65308134 12.03744457 1.45507052 10.05547348 1 7 C0.07585059 3.72435637 0.07585059 3.72435637 -1 1 C-0.67 0.67 -0.34 0.34 0 0 Z " fill="#343E38" transform="translate(30,20)"/>
<path d="M0 0 C0.66 0 1.32 0 2 0 C2 4.62 2 9.24 2 14 C0.68 14.33 -0.64 14.66 -2 15 C-2 15.99 -2 16.98 -2 18 C-3.98 18 -5.96 18 -8 18 C-9.25 16 -9.25 16 -10 13 C-8.97703944 10.14731103 -7.55754223 7.59375835 -6 5 C-5.01 5 -4.02 5 -3 5 C-2.690625 4.360625 -2.38125 3.72125 -2.0625 3.0625 C-1 1 -1 1 0 0 Z " fill="#E9E6DC" transform="translate(72,34)"/>
<path d="M0 0 C4.95 0 9.9 0 15 0 C15 1.98 15 3.96 15 6 C10.05 6 5.1 6 0 6 C0 4.02 0 2.04 0 0 Z " fill="#F8F5EA" transform="translate(53,73)"/>
<path d="M0 0 C4.95 0 9.9 0 15 0 C15 1.98 15 3.96 15 6 C10.05 6 5.1 6 0 6 C0 4.02 0 2.04 0 0 Z " fill="#F8F5EA" transform="translate(62,64)"/>
<path d="M0 0 C4.95 0 9.9 0 15 0 C15 1.98 15 3.96 15 6 C10.05 6 5.1 6 0 6 C0 4.02 0 2.04 0 0 Z " fill="#F8F5EA" transform="translate(44,64)"/>
<path d="M0 0 C4.62 0 9.24 0 14 0 C14 1.98 14 3.96 14 6 C9.38 6 4.76 6 0 6 C0 4.02 0 2.04 0 0 Z " fill="#F8F5EA" transform="translate(36,73)"/>
<path d="M0 0 C4.95 0 9.9 0 15 0 C15 1.65 15 3.3 15 5 C10.05 5 5.1 5 0 5 C0 3.35 0 1.7 0 0 Z " fill="#F8F5EA" transform="translate(53,56)"/>
<path d="M0 0 C2.05078125 0.03255208 4.1015625 0.06510417 6.15234375 0.09765625 C6.15234375 2.07765625 6.15234375 4.05765625 6.15234375 6.09765625 C1.53234375 6.09765625 -3.08765625 6.09765625 -7.84765625 6.09765625 C-1.84765625 0.09765625 -1.84765625 0.09765625 0 0 Z " fill="#F3F0E6" transform="translate(34.84765625,63.90234375)"/>
<path d="M0 0 C1.32 0.66 2.64 1.32 4 2 C3.505 2.515625 3.01 3.03125 2.5 3.5625 C0.13480778 7.40593736 0.61448544 11.12061652 1.5 15.4375 C1.665 15.953125 1.83 16.46875 2 17 C0.0625 16.6875 0.0625 16.6875 -2 16 C-3.23446068 12.29661796 -3.44981274 8.85339582 -3 5 C-1.5 2 -1.5 2 0 0 Z " fill="#38423D" transform="translate(29,35)"/>
<path d="M0 0 C0 1.65 0 3.3 0 5 C-3.96 5 -7.92 5 -12 5 C-7.25097857 0.25097857 -6.37757767 -0.13864299 0 0 Z " fill="#F1EEE3" transform="translate(50,56)"/>
<path d="M0 0 C-0.52268466 2.76276177 -1.10869587 5.3260876 -2 8 C-3.98 8 -5.96 8 -8 8 C-7.6641593 4.89347355 -7.40950721 3.39585697 -5.125 1.1875 C-3 0 -3 0 0 0 Z " fill="#343E39" transform="translate(72,44)"/>
<path d="M0 0 C0.66 0.33 1.32 0.66 2 1 C1.34 3.31 0.68 5.62 0 8 C0.66 8.33 1.32 8.66 2 9 C-1.96 9 -5.92 9 -10 9 C-8.68 8.01 -7.36 7.02 -6 6 C-4.31384218 4.35305515 -2.64429829 2.68873879 -1 1 C-0.67 0.67 -0.34 0.34 0 0 Z " fill="#DEDCD2" transform="translate(59,44)"/>
<path d="M0 0 C1.98 0 3.96 0 6 0 C6 1.98 6 3.96 6 6 C4.02 6 2.04 6 0 6 C0 4.02 0 2.04 0 0 Z " fill="#F8F5EA" transform="translate(71,73)"/>
<path d="M0 0 C1.98 0 3.96 0 6 0 C6 1.98 6 3.96 6 6 C4.02 6 2.04 6 0 6 C0 4.02 0 2.04 0 0 Z " fill="#F8F5EA" transform="translate(27,73)"/>
<path d="M0 0 C1.98 0 3.96 0 6 0 C6 1.65 6 3.3 6 5 C4.02 5 2.04 5 0 5 C0 3.35 0 1.7 0 0 Z " fill="#F8F5EA" transform="translate(71,56)"/>
<path d="M0 0 C1.98 0 3.96 0 6 0 C6 1.65 6 3.3 6 5 C4.02 5 2.04 5 0 5 C0 3.35 0 1.7 0 0 Z " fill="#F5F2E7" transform="translate(27,56)"/>
<path d="M0 0 C0.66 0.33 1.32 0.66 2 1 C2 4.3 2 7.6 2 11 C1.01 11.33 0.02 11.66 -1 12 C-1.14285714 3.42857143 -1.14285714 3.42857143 0 0 Z " fill="#293530" transform="translate(38,30)"/>
<path d="M0 0 C1.60031344 3.20062687 0.03173691 5.72271806 -1 9 C-1.99 9 -2.98 9 -4 9 C-3.6875 5.625 -3.6875 5.625 -3 2 C-2.01 1.34 -1.02 0.68 0 0 Z " fill="#353F3A" transform="translate(63,43)"/>
<path d="M0 0 C0.33 0 0.66 0 1 0 C1.144375 0.763125 1.28875 1.52625 1.4375 2.3125 C1.9632594 5.08172908 1.9632594 5.08172908 3 8 C2.01 8.99 1.02 9.98 0 11 C-1.35015859 6.94952424 -0.62084998 4.2079832 0 0 Z " fill="#4A514C" transform="translate(74,37)"/>
<path d="M0 0 C0.99 0.495 0.99 0.495 2 1 C2.59355614 3.64860427 2.74209269 6.29197322 3 9 C2.01 8.67 1.02 8.34 0 8 C0 5.36 0 2.72 0 0 Z " fill="#B9B8AF" transform="translate(62,22)"/>
<path d="M0 0 C0.66 0 1.32 0 2 0 C2 1.98 2 3.96 2 6 C1.01 6.33 0.02 6.66 -1 7 C-1.04254356 5.00045254 -1.04080783 2.99958364 -1 1 C-0.67 0.67 -0.34 0.34 0 0 Z " fill="#29342F" transform="translate(50,29)"/>
<path d="M0 0 C1.9375 0.75 1.9375 0.75 4 2 C4.75 4.125 4.75 4.125 5 6 C3.68 5.67 2.36 5.34 1 5 C0.67 3.35 0.34 1.7 0 0 Z " fill="#414944" transform="translate(26,46)"/>
</svg>
